<svg xmlns="http://www.w3.org/2000/svg" viewBox="0 0 62.43 62.79"><defs><style>.cls-1,.cls-2{fill:#614293;}.cls-1{opacity:0.8;}</style></defs><g id="Слой_2" data-name="Слой 2"><g id="Слой_1-2" data-name="Слой 1"><path class="cls-1" d="M59.5,24.14,38.28,2.93a10,10,0,0,0-14.14,0L2.93,24.14a10,10,0,0,0,0,14.14L24.14,59.5a10,10,0,0,0,14.14,0L59.5,38.28A10,10,0,0,0,59.5,24.14ZM42.08,34.29l-8.15,8.15a3.84,3.84,0,0,1-5.43,0l-8.16-8.15a3.84,3.84,0,0,1,0-5.43L28.5,20.7a3.84,3.84,0,0,1,5.43,0l8.15,8.16A3.84,3.84,0,0,1,42.08,34.29Z"/><path class="cls-2" d="M59.5,24.5,38.28,3.29a10,10,0,0,0-14.14,0L2.93,24.5a10,10,0,0,0,0,14.14L24.14,59.86a10,10,0,0,0,14.14,0L59.5,38.64A10,10,0,0,0,59.5,24.5ZM50.07,36.29,35.93,50.43a6.68,6.68,0,0,1-9.43,0L12.36,36.29a6.66,6.66,0,0,1,0-9.43L26.5,12.72a6.66,6.66,0,0,1,9.43,0L50.07,26.86A6.68,6.68,0,0,1,50.07,36.29Z"/></g></g></svg>