<svg xmlns="http://www.w3.org/2000/svg" viewBox="0 0 283.79 62.79">
<defs>
<style>.cls-1,.cls-2{fill:#fff;}.cls-2{opacity:0.8;}</style>
</defs>
<path class="cls-1" d="M85.49,40.27a2.51,2.51,0,0,1-1.74-.56,2.18,2.18,0,0,1-.6-1.66V15.62H76.49V39.49A6.27,6.27,0,0,0,78.17,44a6.49,6.49,0,0,0,4.93,1.76q3.34,0,6.72-.07t6.45-.41l-.3-5Z"/>
<path class="cls-1" d="M113.57,39a23.85,23.85,0,0,1-2.63,1.23,7.56,7.56,0,0,1-2.67.5,2.64,2.64,0,0,1-1.89-.57,2.57,2.57,0,0,1-.59-1.91V24.14H99.36V40.23q0,6,6.13,6a11.51,11.51,0,0,0,4.65-1,18.46,18.46,0,0,0,4.23-2.74l.55,3.13H120V24.14h-6.44Z"/>
<path class="cls-1" d="M152.48,23.58a9.48,9.48,0,0,0-4.33,1,16.43,16.43,0,0,0-3.53,2.53,4.81,4.81,0,0,0-1.16-2.05,5.93,5.93,0,0,0-4.37-1.5,9.42,9.42,0,0,0-4.35,1,17.64,17.64,0,0,0-3.85,2.81l-.5-3.27h-5.12V45.62h6.43V30.8c.59-.37,1.14-.69,1.58-.92a8.85,8.85,0,0,1,1.66-.67,5.46,5.46,0,0,1,1.45-.2,2.52,2.52,0,0,1,1.81.57,2.64,2.64,0,0,1,.58,2V45.62H145V30.88c.61-.38,1.18-.71,1.65-.95a10.21,10.21,0,0,1,1.61-.7,5,5,0,0,1,1.47-.22,2.38,2.38,0,0,1,1.83.59,2.88,2.88,0,0,1,.52,1.93V45.62h6.39V29.53a6,6,0,0,0-1.52-4.43A6,6,0,0,0,152.48,23.58Z"/>
<path class="cls-1" d="M179.47,24.3a12.76,12.76,0,0,0-4.56-.72c-1.08,0-2.29.05-3.66.15s-2.72.23-4.08.37-2.57.32-3.61.52l.61,4.26c1.74-.11,3.43-.21,5.09-.28s3-.11,4.12-.11a3.92,3.92,0,0,1,2.72.7,3,3,0,0,1,.72,2.21v1H169a7.25,7.25,0,0,0-4.78,1.44,4.89,4.89,0,0,0-1.74,4v2.21a5.82,5.82,0,0,0,.91,3.35,5.72,5.72,0,0,0,2.48,2,8.44,8.44,0,0,0,3.52.7,9.26,9.26,0,0,0,3.56-.65,11.53,11.53,0,0,0,2.74-1.59,11.09,11.09,0,0,0,1.76-1.72l.68,3.44h5.13V31.45a9.61,9.61,0,0,0-1-4.72A5.37,5.37,0,0,0,179.47,24.3Zm-3,15.32A12.15,12.15,0,0,1,173.88,41a7.19,7.19,0,0,1-2.45.47,2.77,2.77,0,0,1-2-.58,2.24,2.24,0,0,1-.61-1.68v-1a2.23,2.23,0,0,1,.5-1.52,2.14,2.14,0,0,1,1.68-.57l5.78,0v3.35C176.71,39.46,176.62,39.55,176.51,39.62Z"/>
<path class="cls-1" d="M205.51,40.36c-1.37.06-3,.08-5,.08a5.93,5.93,0,0,1-3.45-.86,4.94,4.94,0,0,1-1.76-3,26.23,26.23,0,0,1-.52-5.93,26.23,26.23,0,0,1,.52-5.93,4.91,4.91,0,0,1,1.76-3,5.93,5.93,0,0,1,3.45-.87c1.28,0,2.37,0,3.29,0s1.76,0,2.56.06l2.63.13.52-4.86a23.21,23.21,0,0,0-2.61-.61,26.14,26.14,0,0,0-2.76-.33c-1-.07-2.21-.11-3.63-.11A15.82,15.82,0,0,0,193,16.6a8.61,8.61,0,0,0-4,4.89,27.24,27.24,0,0,0-1.24,9.13A27.2,27.2,0,0,0,189,39.75a8.61,8.61,0,0,0,4,4.89,15.82,15.82,0,0,0,7.45,1.5,42.49,42.49,0,0,0,5.39-.28,25,25,0,0,0,4.27-.94l-.57-4.87C208.22,40.2,206.87,40.3,205.51,40.36Z"/>
<path class="cls-1" d="M222.89,40.92a2.94,2.94,0,0,1-1.91-.54,2,2,0,0,1-.65-1.63V15.19h-6.39V40.36a5.45,5.45,0,0,0,1.7,4.26,6.65,6.65,0,0,0,4.6,1.52,16.86,16.86,0,0,0,1.7-.11c.66-.07,1.32-.17,1.95-.3a6.36,6.36,0,0,0,1.48-.46l-.74-4.35Z"/>
<path class="cls-1" d="M232.94,14.67h-2.79a1.71,1.71,0,0,0-1.91,2v2.31a1.71,1.71,0,0,0,1.91,1.95h2.79a1.71,1.71,0,0,0,1.91-1.95V16.62A1.71,1.71,0,0,0,232.94,14.67Z"/>
<rect class="cls-1" x="228.33" y="24.14" width="6.39" height="21.47"/>
<path class="cls-1" d="M255.36,40.81c-.84,0-1.62.08-2.34.11s-1.32,0-1.79,0a7.41,7.41,0,0,1-3.08-.53,3.1,3.1,0,0,1-1.63-1.86,11,11,0,0,1-.5-3.74,10.64,10.64,0,0,1,.5-3.68,3.09,3.09,0,0,1,1.63-1.84,7.43,7.43,0,0,1,3.08-.52c.84,0,1.79,0,2.85,0l3.33.09.69-4.05a12.78,12.78,0,0,0-2.58-.8,23.12,23.12,0,0,0-2.81-.39c-.93-.07-1.78-.11-2.56-.11a15.45,15.45,0,0,0-6.35,1.09,6.64,6.64,0,0,0-3.45,3.56,17,17,0,0,0-1.07,6.61,17.4,17.4,0,0,0,1,6.6A6.68,6.68,0,0,0,243.74,45a15.19,15.19,0,0,0,6.36,1.11,28.44,28.44,0,0,0,4.39-.35,15.46,15.46,0,0,0,4-1.13l-.61-4.08C257,40.69,256.2,40.77,255.36,40.81Z"/>
<path class="cls-1" d="M276.62,45.62h7.17l-6.34-9.52a8.79,8.79,0,0,0-1-1.39,4.47,4.47,0,0,0-1-.92v-.17a8.39,8.39,0,0,0,1-.83,6.35,6.35,0,0,0,1-1.17l5.6-7.48h-7.17l-5.32,7.57h-2.13c.05-.33.11-.67.15-1a25.89,25.89,0,0,0,.17-3l0-12.56h-6.43V45.62h6.43v-6.7a23,23,0,0,0-.17-2.63c0-.22-.07-.45-.1-.67h2.1Z"/>
<path class="cls-2" d="M59.5,24.14,38.28,2.93a10,10,0,0,0-14.14,0L2.93,24.14a10,10,0,0,0,0,14.14L24.14,59.5a10,10,0,0,0,14.14,0L59.5,38.28A10,10,0,0,0,59.5,24.14ZM42.08,34.29l-8.15,8.15a3.84,3.84,0,0,1-5.43,0l-8.16-8.15a3.84,3.84,0,0,1,0-5.43L28.5,20.7a3.84,3.84,0,0,1,5.43,0l8.15,8.16A3.84,3.84,0,0,1,42.08,34.29Z"/>
<path class="cls-1" d="M59.5,24.5,38.28,3.29a10,10,0,0,0-14.14,0L2.93,24.5a10,10,0,0,0,0,14.14L24.14,59.86a10,10,0,0,0,14.14,0L59.5,38.64A10,10,0,0,0,59.5,24.5ZM50.07,36.29,35.93,50.43a6.68,6.68,0,0,1-9.43,0L12.36,36.29a6.66,6.66,0,0,1,0-9.43L26.5,12.72a6.66,6.66,0,0,1,9.43,0L50.07,26.86A6.68,6.68,0,0,1,50.07,36.29Z"/></svg>